<svg id="Ebene_1" data-name="Ebene 1" xmlns="http://www.w3.org/2000/svg" viewBox="0 0 183.78 72.82"><defs><style>.cls-1{fill:#fff;}</style></defs><path class="cls-1" d="M1.05,0h5.2c3.16,0,5.23.9,5.23,3.67A3.42,3.42,0,0,1,9,7v.06a3.67,3.67,0,0,1,3.09,3.71c0,2.7-1.94,4.18-5.51,4.18H1.05ZM6.31,6.48c2.48,0,3.41-1.09,3.41-2.61,0-1.78-1.32-2.48-3.28-2.48H2.73V6.48Zm.39,7.07c2.4,0,3.61-1,3.61-2.83,0-2.17-1.62-2.89-4.1-2.89H2.73v5.72Z"/><path class="cls-1" d="M13.9,13.63h4V5.53h-4V4.18h5.45V6.54h.08c.5-1.75,1.68-2.36,3.69-2.36h2V5.7h-2c-3.44,0-3.62,1.92-3.62,5.08v2.85h4.14V15H13.9Z"/><path class="cls-1" d="M26.61,12c0-1.87,1.35-2.71,4-3.22L33,8.32c.74-.14,1-.1,1-.86,0-1.41-.92-2.25-2.58-2.25a2.66,2.66,0,0,0-2.93,2.27L27,7.34c.31-2.18,2.11-3.41,4.49-3.41,2.72,0,4.18,1.32,4.18,4.1v6.62a1.84,1.84,0,0,0,0,.31H34.13v-.41c0-.43,0-.7,0-1h0a4.23,4.23,0,0,1-3.67,1.57C28.13,15.16,26.61,14,26.61,12Zm7.48-1.31V10a3.44,3.44,0,0,1,0-.63l-.9.18c-1.35.27-1.86.39-2.21.45-2.09.41-2.67.84-2.67,2s1,2,2.4,2A3.16,3.16,0,0,0,34.09,10.7Z"/><path class="cls-1" d="M37.52,4.18h1.8L40.9,8.75c.49,1.43,1.14,3.22,1.6,4.63h.06c.45-1.41,1.06-3.09,1.6-4.59l1.61-4.61H47.5L43.34,15H41.57Z"/><path class="cls-1" d="M48.59,12c0-1.87,1.35-2.71,4-3.22L55,8.32c.74-.14,1-.1,1-.86,0-1.41-.92-2.25-2.58-2.25a2.67,2.67,0,0,0-2.93,2.27l-1.56-.14c.31-2.18,2.11-3.41,4.49-3.41,2.73,0,4.18,1.32,4.18,4.1v6.62a1.84,1.84,0,0,0,0,.31H56.11v-.41c0-.43,0-.7,0-1h0a4.23,4.23,0,0,1-3.67,1.57C50.1,15.16,48.59,14,48.59,12Zm7.48-1.31V10a3.44,3.44,0,0,1,0-.63l-.9.18c-1.36.27-1.87.39-2.22.45-2.09.41-2.66.84-2.66,2s1,2,2.4,2A3.16,3.16,0,0,0,56.07,10.7Z"/><path class="cls-1" d="M0,28.72c0-4.44,2.88-7.64,7.26-7.64,3.14,0,5.38,1.56,6.18,4l-2.22.48A4.1,4.1,0,0,0,7.28,23c-3.08,0-5,2.38-5,5.68s2,5.7,5,5.7c2.66,0,4.06-1.66,4.22-4.28H6.62v-2h6.94V36H11.42v-.44c0-.42,0-.84,0-1.08h0A5.59,5.59,0,0,1,7,36.24C2.72,36.24,0,33.16,0,28.72Z"/><path class="cls-1" d="M15.4,30.74c0-3.18,2-5.58,5.26-5.58,3.56,0,5.08,2.7,5.08,6.1H17.48a3.21,3.21,0,0,0,3.3,3.22,3.39,3.39,0,0,0,3.1-1.74l1.78.76a5.29,5.29,0,0,1-4.92,2.72C17.42,36.22,15.4,34.06,15.4,30.74Zm8.16-1.08a2.86,2.86,0,0,0-2.92-2.82,3.11,3.11,0,0,0-3.14,2.82Z"/><path class="cls-1" d="M27.94,27.26c0-.74,0-1.12,0-1.82h2v.62c0,.22,0,.58,0,.8h0a3.57,3.57,0,0,1,3.2-1.7,3.34,3.34,0,0,1,3.18,1.92,4,4,0,0,1,3.56-1.92c2.46,0,3.76,1.6,3.76,4.4V36H41.54V30c0-1.92-.58-3.06-2.18-3.06-1.92,0-2.5,1.6-2.5,3.64V36H34.74V30.08c0-2-.62-3.1-2.16-3.1-1.84,0-2.52,1.52-2.52,3.76V36H27.94Z"/><path class="cls-1" d="M45.76,30.74c0-3.18,2-5.58,5.26-5.58,3.56,0,5.08,2.7,5.08,6.1H47.84a3.21,3.21,0,0,0,3.3,3.22,3.39,3.39,0,0,0,3.1-1.74L56,33.5a5.29,5.29,0,0,1-4.92,2.72C47.78,36.22,45.76,34.06,45.76,30.74Zm8.16-1.08A2.86,2.86,0,0,0,51,26.84a3.11,3.11,0,0,0-3.14,2.82Z"/><path class="cls-1" d="M58.28,21.36h2.16v2.46H58.28Zm0,4.08h2.12V36H58.3Z"/><path class="cls-1" d="M63.38,27.52c0-.56,0-1.54,0-2.08h2v.44c0,.24,0,.7,0,1h0a3.87,3.87,0,0,1,3.36-1.68c2.3,0,3.82,1.42,3.82,4.22V36H70.46V30.7c0-2.44-.48-3.72-2.28-3.72s-2.68,1.3-2.68,3.78V36H63.38Z"/><path class="cls-1" d="M74.46,33.26l1.88-.52a2.64,2.64,0,0,0,2.74,1.82c1.14,0,2-.56,2-1.44s-.7-1.16-2-1.46L78,31.38c-1.84-.42-3.12-1.24-3.12-3,0-2,1.82-3.18,4.06-3.18s3.68,1,4.1,2.72l-1.84.52a2.16,2.16,0,0,0-2.32-1.54c-1.12,0-1.86.54-1.86,1.28s.56,1.14,1.86,1.44l1.28.3c1.94.44,3.14,1.24,3.14,3,0,2.16-1.82,3.3-4.3,3.3S74.9,35.26,74.46,33.26Z"/><path class="cls-1" d="M84.64,33.06c0-2.14,1.62-2.78,4-3.24l2-.38c.84-.16,1.1-.14,1.1-.8,0-1.06-.84-1.74-2.24-1.74A2.14,2.14,0,0,0,87,28.84l-2-.16c.22-2.08,2-3.42,4.44-3.42,2.74,0,4.3,1.2,4.3,3.94v6.3c0,.18,0,.36,0,.46H91.82v-.4a5.47,5.47,0,0,1,0-.7H91.8a4.35,4.35,0,0,1-3.38,1.28C86.16,36.14,84.64,35,84.64,33.06Zm7.08-1.32V31.3a3.57,3.57,0,0,1,0-.46,10.41,10.41,0,0,1-1,.22l-1.5.3c-1.64.34-2.4.56-2.4,1.66s.8,1.62,2.08,1.62A2.64,2.64,0,0,0,91.72,31.74Z"/><path class="cls-1" d="M96.52,27.26c0-.74,0-1.12,0-1.82h2v.62c0,.22,0,.58,0,.8h0a3.57,3.57,0,0,1,3.2-1.7,3.34,3.34,0,0,1,3.18,1.92,4,4,0,0,1,3.56-1.92c2.46,0,3.76,1.6,3.76,4.4V36h-2.12V30c0-1.92-.58-3.06-2.18-3.06-1.92,0-2.5,1.6-2.5,3.64V36h-2.12V30.08c0-2-.62-3.1-2.16-3.1-1.84,0-2.52,1.52-2.52,3.76V36H96.52Z"/><path class="cls-1" d="M119.32,37.16l1.92-.68a3,3,0,0,0,3,1.7c1.86,0,2.94-.92,3-3.06,0-.38,0-.7.06-1.14h0a4.06,4.06,0,0,1-3.46,1.74c-2.8,0-4.76-2.2-4.76-5.24s2.08-5.3,4.82-5.3a3.87,3.87,0,0,1,3.4,1.7h0c0-.3,0-.56,0-.84v-.6h2c0,.68,0,1.24,0,2V35c0,3.32-2.14,4.9-5.12,4.9C121.74,39.92,120,38.86,119.32,37.16Zm7.94-6.72c0-2-1.14-3.48-3-3.48s-3,1.54-3,3.5,1.14,3.48,3,3.48S127.26,32.46,127.26,30.44Z"/><path class="cls-1" d="M131.48,30.74c0-3.18,2-5.58,5.26-5.58,3.56,0,5.08,2.7,5.08,6.1h-8.26a3.21,3.21,0,0,0,3.3,3.22,3.39,3.39,0,0,0,3.1-1.74l1.78.76a5.29,5.29,0,0,1-4.92,2.72C133.5,36.22,131.48,34.06,131.48,30.74Zm8.16-1.08a2.86,2.86,0,0,0-2.92-2.82,3.11,3.11,0,0,0-3.14,2.82Z"/><path class="cls-1" d="M143.64,37.16l1.92-.68a3,3,0,0,0,3,1.7c1.86,0,2.94-.92,3-3.06,0-.38,0-.7.06-1.14h0a4.06,4.06,0,0,1-3.46,1.74c-2.8,0-4.76-2.2-4.76-5.24s2.08-5.3,4.82-5.3a3.87,3.87,0,0,1,3.4,1.7h0c0-.3,0-.56,0-.84v-.6h2c0,.68,0,1.24,0,2V35c0,3.32-2.14,4.9-5.12,4.9C146.06,39.92,144.28,38.86,143.64,37.16Zm7.94-6.72c0-2-1.14-3.48-3-3.48s-3,1.54-3,3.5,1.14,3.48,3,3.48S151.58,32.46,151.58,30.44Z"/><path class="cls-1" d="M155.8,30.74c0-3.18,2-5.58,5.26-5.58,3.56,0,5.08,2.7,5.08,6.1h-8.26a3.21,3.21,0,0,0,3.3,3.22,3.39,3.39,0,0,0,3.1-1.74l1.78.76a5.29,5.29,0,0,1-4.92,2.72C157.82,36.22,155.8,34.06,155.8,30.74ZM164,29.66A2.86,2.86,0,0,0,161,26.84a3.11,3.11,0,0,0-3.14,2.82Z"/><path class="cls-1" d="M168.34,27.52c0-.56,0-1.54,0-2.08h2v.44c0,.24,0,.7,0,1h0a3.87,3.87,0,0,1,3.36-1.68c2.3,0,3.82,1.42,3.82,4.22V36h-2.12V30.7c0-2.44-.48-3.72-2.28-3.72s-2.68,1.3-2.68,3.78V36h-2.12Z"/><path class="cls-1" d="M0,49.72c0-4.44,2.88-7.64,7.26-7.64,3.14,0,5.38,1.56,6.18,4l-2.22.48A4.1,4.1,0,0,0,7.28,44c-3.08,0-5,2.38-5,5.68s2,5.7,5,5.7c2.66,0,4.06-1.66,4.22-4.28H6.62v-2h6.94V57H11.42v-.44c0-.42,0-.84,0-1.08h0A5.59,5.59,0,0,1,7,57.24C2.72,57.24,0,54.16,0,49.72Z"/><path class="cls-1" d="M15.4,51.74c0-3.18,2-5.58,5.26-5.58,3.56,0,5.08,2.7,5.08,6.1H17.48a3.21,3.21,0,0,0,3.3,3.22,3.39,3.39,0,0,0,3.1-1.74l1.78.76a5.29,5.29,0,0,1-4.92,2.72C17.42,57.22,15.4,55.06,15.4,51.74Zm8.16-1.08a2.86,2.86,0,0,0-2.92-2.82,3.11,3.11,0,0,0-3.14,2.82Z"/><path class="cls-1" d="M26.68,46.44h2.18L30,50.9c.32,1.2.66,2.62,1,4h.06c.34-1.22.82-3.16,1-3.92l1.24-4.56h2.34L36.88,51c.36,1.3.66,2.58,1,4h.06c.32-1.34.64-2.64,1-4.08l1.2-4.42h2.1L39,57H36.7l-1.32-4.8c-.36-1.32-.64-2.66-.86-3.76h-.06c-.26,1.14-.56,2.38-1,3.82L32.2,57H29.82Z"/><path class="cls-1" d="M43.06,54.06c0-2.14,1.62-2.78,4-3.24l2-.38c.84-.16,1.1-.14,1.1-.8,0-1.06-.84-1.74-2.24-1.74a2.14,2.14,0,0,0-2.42,1.94l-2-.16c.22-2.08,2-3.42,4.44-3.42,2.74,0,4.3,1.2,4.3,3.94v6.3c0,.18,0,.36,0,.46H50.24v-.4a5.47,5.47,0,0,1,0-.7h-.06a4.35,4.35,0,0,1-3.38,1.28C44.58,57.14,43.06,56,43.06,54.06Zm7.08-1.32V52.3a3.57,3.57,0,0,1,0-.46,10.41,10.41,0,0,1-1,.22l-1.5.3c-1.64.34-2.4.56-2.4,1.66s.8,1.62,2.08,1.62A2.64,2.64,0,0,0,50.14,52.74Z"/><path class="cls-1" d="M54.94,42.36h2.12V57H54.94Z"/><path class="cls-1" d="M60.62,53.78V48.14H58.86v-1.7h1.76V43.56H62.7v2.88h2.16v1.7H62.7v5c0,2.46.6,3.06,1.7,3.42V57H61.74C60.84,56.46,60.62,55.56,60.62,53.78Z"/><path class="cls-1" d="M70.48,54.06c0-2.14,1.62-2.78,4-3.24l2-.38c.84-.16,1.1-.14,1.1-.8,0-1.06-.84-1.74-2.24-1.74a2.14,2.14,0,0,0-2.42,1.94l-2-.16c.22-2.08,2-3.42,4.44-3.42,2.74,0,4.3,1.2,4.3,3.94v6.3c0,.18,0,.36,0,.46H77.66v-.4a5.47,5.47,0,0,1,0-.7h-.06a4.35,4.35,0,0,1-3.38,1.28C72,57.14,70.48,56,70.48,54.06Zm7.08-1.32V52.3a3.57,3.57,0,0,1,0-.46,10.41,10.41,0,0,1-1,.22l-1.5.3c-1.64.34-2.4.56-2.4,1.66s.8,1.62,2.08,1.62A2.64,2.64,0,0,0,77.56,52.74Z"/><path class="cls-1" d="M82.36,48.52c0-.56,0-1.54,0-2.08h2v.44c0,.24,0,.7,0,1h0a3.87,3.87,0,0,1,3.36-1.68c2.3,0,3.82,1.42,3.82,4.22V57H89.44V51.7c0-2.44-.48-3.72-2.28-3.72s-2.68,1.3-2.68,3.78V57H82.36Z"/><path class="cls-1" d="M99.24,42.36h9.22v2h-7v4.3h6.46v2h-6.46V57H99.24Z"/><path class="cls-1" d="M110.16,48.36c0-.84,0-1.32,0-1.92h2V47c0,.28,0,.74,0,1h0a3.26,3.26,0,0,1,3.08-1.82,2.46,2.46,0,0,1,.58.06l-.06,2a2.79,2.79,0,0,0-.7-.08c-2,0-2.84,1.18-2.84,3.54V57h-2.06Z"/><path class="cls-1" d="M116.58,54.06c0-2.14,1.62-2.78,4-3.24l2-.38c.84-.16,1.1-.14,1.1-.8,0-1.06-.84-1.74-2.24-1.74A2.14,2.14,0,0,0,119,49.84l-2-.16c.22-2.08,2-3.42,4.44-3.42,2.74,0,4.3,1.2,4.3,3.94v6.3c0,.18,0,.36,0,.46h-1.94v-.4a5.47,5.47,0,0,1,0-.7h-.06a4.35,4.35,0,0,1-3.38,1.28C118.1,57.14,116.58,56,116.58,54.06Zm7.08-1.32V52.3a3.57,3.57,0,0,1,0-.46,10.41,10.41,0,0,1-1,.22l-1.5.3c-1.64.34-2.4.56-2.4,1.66s.8,1.62,2.08,1.62A2.64,2.64,0,0,0,123.66,52.74Z"/><path class="cls-1" d="M128.32,53.24v-6.8h2.12V52.7c0,1.84.78,2.76,2.28,2.76,1.8,0,2.62-1.38,2.62-3.44V46.44h2.12v9c0,.56,0,1,0,1.56h-2V56.5c0-.22,0-.64,0-.88h0a3.8,3.8,0,0,1-3.3,1.58C129.88,57.2,128.32,56,128.32,53.24Z"/><path class="cls-1" d="M139.7,51.74c0-3.18,2-5.58,5.26-5.58,3.56,0,5.08,2.7,5.08,6.1h-8.26a3.21,3.21,0,0,0,3.3,3.22,3.39,3.39,0,0,0,3.1-1.74l1.78.76A5.29,5.29,0,0,1,145,57.22C141.72,57.22,139.7,55.06,139.7,51.74Zm8.16-1.08a2.86,2.86,0,0,0-2.92-2.82,3.11,3.11,0,0,0-3.14,2.82Z"/><path class="cls-1" d="M152.24,48.52c0-.56,0-1.54,0-2.08h2v.44c0,.24,0,.7,0,1h0a3.87,3.87,0,0,1,3.36-1.68c2.3,0,3.82,1.42,3.82,4.22V57h-2.12V51.7c0-2.44-.48-3.72-2.28-3.72s-2.68,1.3-2.68,3.78V57h-2.12Z"/><path class="cls-1" d="M1.12,65.38H5.86v1H2.21v2.08H5.6v1H2.21V71.7H5.94v1H1.12Z"/><path class="cls-1" d="M7.18,65.38H8.24v1.85c0,.25,0,.69,0,.87a1.88,1.88,0,0,1,1.63-.81,1.84,1.84,0,0,1,1.91,2.09v3.3h-1V70c0-1.18-.23-1.83-1.14-1.83s-1.33.64-1.33,1.87v2.61H7.18Z"/><path class="cls-1" d="M12.87,70.07a2.59,2.59,0,0,1,2.63-2.79c1.77,0,2.53,1.35,2.53,3H13.91a1.6,1.6,0,0,0,1.64,1.61,1.7,1.7,0,0,0,1.55-.87l.89.38a2.64,2.64,0,0,1-2.45,1.36A2.52,2.52,0,0,1,12.87,70.07Zm4.07-.54a1.43,1.43,0,0,0-1.46-1.41,1.55,1.55,0,0,0-1.56,1.41Z"/><path class="cls-1" d="M19.19,68.33c0-.37,0-.56,0-.91h1v.31c0,.11,0,.29,0,.4h0a1.79,1.79,0,0,1,1.6-.85,1.67,1.67,0,0,1,1.59,1,2,2,0,0,1,1.78-1c1.23,0,1.88.8,1.88,2.2v3.2H26v-3c0-1-.29-1.53-1.09-1.53-1,0-1.25.8-1.25,1.82v2.67H22.58V69.74c0-1-.31-1.55-1.08-1.55-.92,0-1.26.76-1.26,1.88v2.61h-1Z"/><path class="cls-1" d="M28.13,71.23c0-1.07.81-1.39,2-1.62l1-.19c.42-.08.55-.07.55-.4,0-.53-.42-.87-1.12-.87a1.05,1.05,0,0,0-1.2,1l-1-.08a2,2,0,0,1,2.21-1.71c1.37,0,2.15.6,2.15,2v3.15c0,.09,0,.18,0,.23h-1v-.2a2.73,2.73,0,0,1,0-.35h0a2.17,2.17,0,0,1-1.69.64C28.88,72.77,28.13,72.2,28.13,71.23Zm3.53-.66v-.22a1.79,1.79,0,0,1,0-.23,5.2,5.2,0,0,1-.52.11l-.75.15c-.82.17-1.2.28-1.2.83s.41.81,1,.81A1.32,1.32,0,0,0,31.66,70.57Z"/><path class="cls-1" d="M34.12,65.38h1.05v7.3H34.12Z"/><path class="cls-1" d="M36.24,71.33l.94-.26a1.31,1.31,0,0,0,1.36.91c.57,0,1-.28,1-.72s-.35-.58-1-.73L38,70.39c-.92-.21-1.56-.62-1.56-1.52s.9-1.59,2-1.59a1.89,1.89,0,0,1,2,1.36l-.92.26a1.08,1.08,0,0,0-1.16-.77c-.55,0-.92.27-.92.64s.28.57.92.72l.64.15c1,.22,1.57.62,1.57,1.51,0,1.08-.91,1.65-2.15,1.65S36.46,72.33,36.24,71.33Z"/><path class="cls-1" d="M45.38,66.37H43.17v-1h5.54v1h-2.2v6.31H45.38Z"/><path class="cls-1" d="M49.71,65.38h4.75v1H50.8v2.08h3.4v1H50.8V71.7h3.74v1H49.71Z"/><path class="cls-1" d="M55.88,65.38h2.84c1.72,0,2.51.73,2.51,2a1.78,1.78,0,0,1-1.29,1.83,1.8,1.8,0,0,1,1,1.65l.07.64a2.49,2.49,0,0,0,.29,1.14v.07H60.17a3.17,3.17,0,0,1-.22-1l-.11-.78c-.12-.86-.43-1.28-1.57-1.28H57v3.05H55.88Zm2.68,3.32c1,0,1.55-.36,1.55-1.22s-.62-1.15-1.55-1.15H57V68.7Z"/><path class="cls-1" d="M62.68,65.38h2.84c1.72,0,2.51.73,2.51,2a1.78,1.78,0,0,1-1.29,1.83,1.8,1.8,0,0,1,1,1.65l.07.64a2.49,2.49,0,0,0,.29,1.14v.07H67a3.17,3.17,0,0,1-.22-1l-.11-.78c-.12-.86-.43-1.28-1.57-1.28h-1.3v3.05H62.68Zm2.68,3.32c1,0,1.55-.36,1.55-1.22s-.62-1.15-1.55-1.15H63.77V68.7Z"/><path class="cls-1" d="M69.48,65.38h4.75v1H70.57v2.08H74v1h-3.4V71.7h3.74v1H69.48Z"/><path class="cls-1" d="M78,65.38h2.51c2.45,0,3.61,1.37,3.61,3.59s-1,3.71-3.55,3.71H78Zm2.38,6.35A2.34,2.34,0,0,0,83,69.06,2.51,2.51,0,0,0,82,66.77a4.16,4.16,0,0,0-2.33-.43h-.57v5.39Z"/><path class="cls-1" d="M85.47,65.38h4.75v1H86.56v2.08H90v1h-3.4V71.7H90.3v1H85.47Z"/><path class="cls-1" d="M91.07,70.85l1.07-.26a1.62,1.62,0,0,0,1.72,1.3c.9,0,1.53-.46,1.53-1.17s-.46-.88-1.29-1.13l-.6-.18c-1.35-.41-2.17-.86-2.17-2.09s1.07-2.08,2.56-2.08A2.35,2.35,0,0,1,96.39,67l-1,.27a1.42,1.42,0,0,0-1.52-1.07c-.8,0-1.35.4-1.35,1s.42.85,1.4,1.16l.71.22c1.11.34,1.94.78,1.94,2,0,1.39-1.15,2.2-2.7,2.2A2.56,2.56,0,0,1,91.07,70.85Z"/><path class="cls-1" d="M100.18,65.38h4.61v1h-3.5v2.15h3.23v1h-3.23v3.18h-1.11Z"/><path class="cls-1" d="M106,65.38h4.75v1h-3.66v2.08h3.4v1h-3.4V71.7h3.74v1H106Z"/><path class="cls-1" d="M112.14,65.38h1.71l1.2,3.4c.31.87.61,1.76.91,2.64h0c.32-1,.56-1.73.87-2.62l1.2-3.42h1.69v7.3h-1.08V69c0-1,0-1.72,0-2.67h0c-.21.69-.34,1-.54,1.62l-1.66,4.76h-1.07l-1.49-4.24c-.27-.76-.51-1.46-.69-2.14h0c0,.47,0,.91,0,1.44v4.94h-1.06Z"/><path class="cls-1" d="M121.5,65.38h1.71l1.2,3.4c.31.87.61,1.76.91,2.64h0c.32-1,.56-1.73.87-2.62l1.2-3.42h1.69v7.3H128V69c0-1,0-1.72,0-2.67h0c-.21.69-.34,1-.54,1.62l-1.66,4.76h-1.07l-1.49-4.24c-.27-.76-.51-1.46-.69-2.14h0c0,.47,0,.91,0,1.44v4.94H121.5Z"/><path class="cls-1" d="M130.86,65.38h4.75v1H132v2.08h3.4v1H132V71.7h3.74v1h-4.83Z"/><path class="cls-1" d="M136.46,70.85l1.07-.26a1.62,1.62,0,0,0,1.72,1.3c.9,0,1.53-.46,1.53-1.17s-.46-.88-1.29-1.13l-.6-.18c-1.35-.41-2.17-.86-2.17-2.09s1.07-2.08,2.56-2.08a2.35,2.35,0,0,1,2.5,1.76l-1,.27a1.42,1.42,0,0,0-1.52-1.07c-.8,0-1.35.4-1.35,1s.42.85,1.4,1.16l.71.22c1.11.34,1.94.78,1.94,2,0,1.39-1.15,2.2-2.7,2.2A2.56,2.56,0,0,1,136.46,70.85Z"/><path class="cls-1" d="M145,70.85l1.07-.26a1.62,1.62,0,0,0,1.72,1.3c.9,0,1.53-.46,1.53-1.17s-.46-.88-1.29-1.13l-.6-.18c-1.35-.41-2.17-.86-2.17-2.09s1.07-2.08,2.56-2.08a2.35,2.35,0,0,1,2.5,1.76l-1,.27a1.42,1.42,0,0,0-1.52-1.07c-.8,0-1.35.4-1.35,1s.42.85,1.4,1.16l.71.22c1.11.34,1.94.78,1.94,2,0,1.39-1.15,2.2-2.7,2.2A2.56,2.56,0,0,1,145,70.85Z"/><path class="cls-1" d="M151.27,70.07a2.57,2.57,0,0,1,2.61-2.79,2.23,2.23,0,0,1,2.34,1.64l-1,.22a1.3,1.3,0,0,0-1.31-1c-.94,0-1.49.73-1.49,1.89s.56,1.86,1.48,1.86a1.31,1.31,0,0,0,1.34-1l1,.21a2.26,2.26,0,0,1-2.34,1.64A2.53,2.53,0,0,1,151.27,70.07Z"/><path class="cls-1" d="M157.26,65.38h1.06v1.85c0,.25,0,.69,0,.87a1.88,1.88,0,0,1,1.64-.81,1.84,1.84,0,0,1,1.91,2.09v3.3h-1V70c0-1.18-.23-1.83-1.15-1.83s-1.33.64-1.33,1.87v2.61h-1.06Z"/><path class="cls-1" d="M162.68,67.42h1.09l.59,2.23c.16.6.33,1.31.48,2h0c.17-.61.41-1.58.51-2l.62-2.28h1.17l.61,2.26c.18.65.33,1.29.49,2h0c.16-.67.32-1.32.51-2l.6-2.21h1.05l-1.6,5.26h-1.17l-.66-2.4c-.18-.66-.32-1.33-.43-1.88h0c-.13.57-.28,1.19-.48,1.91l-.65,2.37h-1.19Z"/><path class="cls-1" d="M171,70.07a2.59,2.59,0,0,1,2.63-2.79c1.78,0,2.54,1.35,2.54,3H172a1.61,1.61,0,0,0,1.65,1.61,1.7,1.7,0,0,0,1.55-.87l.89.38a2.64,2.64,0,0,1-2.46,1.36A2.52,2.52,0,0,1,171,70.07Zm4.08-.54a1.43,1.43,0,0,0-1.46-1.41A1.55,1.55,0,0,0,172,69.53Z"/><path class="cls-1" d="M177.29,65.38h1.08v1.23h-1.08Zm0,2h1.06v5.26H177.3Z"/><path class="cls-1" d="M179.45,71.86l2.94-3.55v0l-.9,0h-1.91v-.89h4.07v.84l-2.93,3.57h0l1.26,0h1.8v.86h-4.33Z"/></svg>